#!OML:ASF F:\VICON\USERDATA\INSTALL\rory3\rory3.ASF
:FULLY-SPECIFIED
:DEGREES
60
root 2.92429 16.7399 -0.00123391 14.8955 5.58518 11.6225
lowerback -7.0187 1.50471 0.415868
upperback -1.70718 2.20409 -7.4331
thorax 2.48296 1.13909 -7.84117
lowerneck -2.27391 14.9313 5.30182
upperneck 47.5077 24.9362 -1.8778
head 20.1181 10.8744 2.39025
rclavicle -4.30866e-014 1.98785e-014
rhumerus -36.1491 5.47938 -93.8778
rradius 42.6873
rwrist -35.7146
rhand -8.58746 -49.6097
rfingers 7.12502
rthumb 17.3435 -78.8558
lclavicle -4.30866e-014 1.98785e-014
lhumerus -28.1935 -20.4039 82.422
lradius 42.5632
lwrist 73.1919
lhand -38.4588 -12.3134
lfingers 7.12502
lthumb -11.4817 17.3522
rfemur -49.5553 23.6364 -6.50051
rtibia 73.8144
rfoot 2.12476 10.9065
rtoes -44.0194
lfemur -31.2511 -6.98682 -36.8006
ltibia 38.1259
lfoot -16.9594 10.434
ltoes 4.37343
61
root 2.92185 16.7258 -0.0186779 15.3614 4.94098 11.3526
lowerback -7.39184 1.7464 0.533487
upperback -1.88199 2.52196 -7.41562
thorax 2.55794 1.29782 -7.85253
lowerneck -2.32435 14.9314 5.38449
upperneck 47.599 24.9392 -1.86012
head 20.2107 10.8797 2.40474
rclavicle 2.83268e-015 -5.1684e-015
rhumerus -36.1027 5.628 -94.0038
rradius 42.7306
rwrist -36.2878
rhand -9.49297 -49.1158
rfingers 7.12502
rthumb 16.4719 -78.4366
lclavicle 2.83268e-015 -5.1684e-015
lhumerus -28.1242 -20.4411 82.4042
lradius 42.6342
lwrist 73.2243
lhand -38.3234 -12.0008
lfingers 7.12502
lthumb -11.3512 17.6719
rfemur -50.7335 23.8596 -6.83147
rtibia 73.8887
rfoot 2.46446 11.1285
rtoes -43.7307
lfemur -32.0613 -6.61819 -36.5917
ltibia 38.1968
lfoot -16.9109 10.5434
ltoes 4.34378
62
root 2.92494 16.7272 -0.0275508 15.4588 4.9348 11.2671
lowerback -7.68535 1.79749 0.690716
upperback -1.73488 2.59848 -7.43129
thorax 2.89407 1.34729 -7.94674
lowerneck -2.54773 14.8971 5.3635
upperneck 47.4833 24.8614 -1.88462
head 20.1807 10.8355 2.39879
rclavicle 6.21202e-015 -2.78299e-014
rhumerus -35.7998 5.68779 -94.0724
rradius 42.7469
rwrist -36.7847
rhand -10.3843 -48.8068
rfingers 7.12502
rthumb 15.6135 -78.1967
lclavicle 6.21202e-015 -2.78299e-014
lhumerus -27.7427 -20.6139 82.3174
lradius 42.5749
lwrist 73.3684
lhand -38.3865 -11.9558
lfingers 7.12502
lthumb -11.412 17.7136
rfemur -50.9373 23.8193 -6.84622
rtibia 73.8938
rfoot 2.80454 11.0183
rtoes -43.1184
lfemur -32.2757 -6.66759 -36.4761
ltibia 38.2781
lfoot -16.9959 10.3975
ltoes 5.65275
63
root 2.92897 16.7305 -0.0292539 15.4967 4.91093 11.2169
lowerback -7.55264 1.86245 0.783302
upperback -1.90547 2.66529 -7.46321
thorax 2.65708 1.37399 -8.03234
lowerneck -2.37845 14.8521 5.5071
upperneck 47.5297 24.7782 -1.86661
head 20.1884 10.8372 2.35916
rclavicle 1.20265e-014 1.19271e-014
rhumerus -36.0379 5.49373 -94.0677
rradius 42.7843
rwrist -36.7344
rhand -10.3049 -49.1849
rfingers 7.12502
rthumb 15.69 -78.5688
lclavicle 1.20265e-014 1.19271e-014
lhumerus -28.0228 -20.8576 82.436
lradius 42.5954
lwrist 73.4521
lhand -38.5445 -12.1173
lfingers 7.12502
lthumb -11.5644 17.5437
rfemur -50.9988 23.8144 -6.84562
rtibia 73.9022
rfoot 2.87815 11.0018
rtoes -42.9495
lfemur -32.4393 -6.68622 -36.4204
ltibia 38.4628
lfoot -17.1144 10.329
ltoes 6.80087
64
root 2.92503 16.7251 -0.0329163 15.5018 4.84902 11.1335
lowerback -7.60797 1.87116 0.798922
upperback -1.85445 2.6789 -7.42162
thorax 2.74193 1.38326 -7.99287
lowerneck -2.40449 14.8842 5.56104
upperneck 47.4491 24.8754 -2.01862
head 20.1994 10.8662 2.30397
rclavicle -3.43897e-014 2.0276e-014
rhumerus -35.8647 5.60981 -94.0837
rradius 42.6951
rwrist -36.8014
rhand -10.2316 -49.3866
rfingers 7.12502
rthumb 15.7606 -78.7649
lclavicle -3.43897e-014 2.0276e-014
lhumerus -27.8801 -20.7495 82.394
lradius 42.5782
lwrist 73.4315
lhand -38.7671 -12.0752
lfingers 7.12502
lthumb -11.7791 17.5735
rfemur -51.1451 23.9084 -6.80586
rtibia 73.9409
rfoot 3.02186 11.0238
rtoes -42.7731
lfemur -32.524 -6.54521 -36.3641
ltibia 38.5497
lfoot -17.023 10.502
ltoes 5.3589
65
root 2.92114 16.7188 -0.0356807 15.4942 4.80586 11.1058
lowerback -7.63745 1.87372 0.766198
upperback -1.80524 2.68811 -7.40733
thorax 2.80898 1.38978 -7.95606
lowerneck -2.51194 14.8979 5.53381
upperneck 47.4617 24.8931 -1.99872
head 20.2268 10.8625 2.33309
rclavicle -6.06293e-014 5.20816e-014
rhumerus -35.7114 5.5825 -94.0498
rradius 42.5733
rwrist -36.4958
rhand -8.79802 -50.5158
rfingers 7.12502
rthumb 17.1409 -79.7798
lclavicle -6.06293e-014 5.20816e-014
lhumerus -27.6916 -20.6964 82.3376
lradius 42.4648
lwrist 73.4074
lhand -38.7379 -12.1961
lfingers 7.12502
lthumb -11.7509 17.4543
rfemur -51.2439 23.9678 -6.79339
rtibia 73.9819
rfoot 2.90119 11.0591
rtoes -43.1238
lfemur -32.5482 -6.45753 -36.3525
ltibia 38.601
lfoot -16.9834 10.6396
ltoes 4.17403
66
root 2.92124 16.7187 -0.0347377 15.4713 4.74636 11.0533
lowerback -7.6477 1.91481 0.797436
upperback -1.81147 2.74134 -7.42012
thorax 2.81804 1.41706 -7.98223
lowerneck -2.41497 14.874 5.6755
upperneck 47.3749 24.8606 -2.10458
head 20.1953 10.8698 2.24733
rclavicle -8.74653e-015 8.34896e-014
rhumerus -35.7028 5.40121 -94.0118
rradius 42.523
rwrist -36.0865
rhand -7.41366 -51.8109
rfingers 7.12502
rthumb 18.4729 -80.9537
lclavicle -8.74653e-015 8.34896e-014
lhumerus -27.6575 -20.795 82.3186
lradius 42.3891
lwrist 73.4218
lhand -38.5538 -12.5092
lfingers 7.12502
lthumb -11.5733 17.1513
rfemur -51.2542 24.0369 -6.74179
rtibia 73.9829
rfoot 2.58518 11.1204
rtoes -43.7599
lfemur -32.5726 -6.45627 -36.2819
ltibia 38.6233
lfoot -17.0587 10.601
ltoes 4.79846
67
root 2.92302 16.7207 -0.0318961 15.4107 4.705 10.9723
lowerback -7.70052 1.9488 0.88
upperback -1.75859 2.78492 -7.40941
thorax 2.91253 1.44267 -8.0124
lowerneck -2.3691 14.8764 5.78981
upperneck 47.2824 24.8939 -2.24885
head 20.1841 10.8903 2.16702
rclavicle 9.0944e-015 -3.57812e-015
rhumerus -35.6469 5.36738 -94.0337
rradius 42.5137
rwrist -36.0696
rhand -7.70697 -51.9249
rfingers 7.12502
rthumb 18.1908 -81.0943
lclavicle 9.0944e-015 -3.57812e-015
lhumerus -27.5257 -20.8316 82.3071
lradius 42.3208
lwrist 73.4205
lhand -38.7393 -12.5857
lfingers 7.12502
lthumb -11.7523 17.0646
rfemur -51.1837 24.1339 -6.63432
rtibia 73.9453
rfoot 2.48247 11.1641
rtoes -43.969
lfemur -32.4914 -6.43114 -36.1965
ltibia 38.5347
lfoot -17.0471 10.5718
ltoes 4.90394
68
root 2.92629 16.7258 -0.0282929 15.3918 4.83026 11.1017
lowerback -7.77875 1.90348 0.783592
upperback -1.68724 2.73972 -7.43558
thorax 3.02109 1.42291 -7.98764
lowerneck -2.43914 14.8803 5.79849
upperneck 47.3577 24.8954 -2.20086
head 20.2458 10.8881 2.20222
rclavicle -1.02871e-014 7.91163e-014
rhumerus -35.5918 5.2837 -94.0156
rradius 42.5171
rwrist -35.9629
rhand -8.20785 -51.464
rfingers 7.12502
rthumb 17.7088 -80.6776
lclavicle -1.02871e-014 7.91163e-014
lhumerus -27.3869 -20.8273 82.3144
lradius 42.2508
lwrist 73.286
lhand -38.9169 -12.5755
lfingers 7.12502
lthumb -11.9235 17.0649
rfemur -51.0047 24.0215 -6.68199
rtibia 73.9164
rfoot 2.57665 11.1424
rtoes -43.7429
lfemur -32.4017 -6.52831 -36.3126
ltibia 38.5063
lfoot -17.097 10.4185
ltoes 5.27497
69
root 2.92796 16.741 -0.0186802 14.9084 5.53908 11.4282
lowerback -7.30359 1.64438 0.594301
upperback -1.5131 2.40262 -7.46861
thorax 2.8817 1.25269 -7.95846
lowerneck -2.29222 14.8345 5.87467
upperneck 47.287 24.8278 -2.27909
head 20.1881 10.8787 2.12332
rclavicle -2.43014e-014 4.57205e-014
rhumerus -35.6829 5.16335 -94.0004
rradius 42.5084
rwrist -35.7787
rhand -8.52364 -51.0627
rfingers 7.12502
rthumb 17.4049 -80.3034
lclavicle -2.43014e-014 4.57205e-014
lhumerus -27.401 -20.84 82.3447
lradius 42.1797
lwrist 73.1866
lhand -39.2374 -12.2789
lfingers 7.12502
lthumb -12.2326 17.3434
rfemur -49.8191 23.7549 -6.39998
rtibia 73.8328
rfoot 2.673 10.782
rtoes -43.1395
lfemur -31.6143 -6.92379 -36.5597
ltibia 38.4223
lfoot -17.1332 10.1692
ltoes 5.78356
70
root 2.92876 16.7278 -0.0315053 15.3658 4.91417 11.1988
lowerback -7.5349 1.86417 0.700139
upperback -1.80094 2.6797 -7.46554
thorax 2.75488 1.38469 -7.98417
lowerneck -2.26508 14.7902 5.86579
upperneck 47.228 24.7678 -2.32977
head 20.1455 10.8539 2.08245
rclavicle -1.11319e-014 -4.29375e-014
rhumerus -35.8018 5.13903 -94.0426
rradius 42.4823
rwrist -35.7715
rhand -8.73047 -51.009
rfingers 7.12502
rthumb 17.2059 -80.2672
lclavicle -1.11319e-014 -4.29375e-014
lhumerus -27.4444 -20.8758 82.3626
lradius 42.0935
lwrist 73.1926
lhand -39.373 -12.1426
lfingers 7.12502
lthumb -12.3633 17.4719
rfemur -50.9163 23.9573 -6.76146
rtibia 73.8788
rfoot 3.00839 10.9197
rtoes -42.7327
lfemur -32.3829 -6.60126 -36.4054
ltibia 38.4716
lfoot -16.9787 10.3433
ltoes 5.80844
71
root 2.92832 16.7273 -0.0338277 15.312 4.84394 11.1245
lowerback -7.51287 1.87949 0.739689
upperback -1.75654 2.69774 -7.43219
thorax 2.79171 1.39538 -7.96896
lowerneck -2.5348 14.8153 5.76187
upperneck 47.3816 24.8158 -2.22269
head 20.2808 10.8412 2.19514
rclavicle -8.84592e-015 1.39149e-014
rhumerus -35.7158 5.17612 -94.0471
rradius 42.444
rwrist -35.8075
rhand -8.67469 -51.4913
rfingers 7.12502
rthumb 17.2596 -80.7449
lclavicle -8.84592e-015 1.39149e-014
lhumerus -27.388 -20.8031 82.3343
lradius 42.0852
lwrist 73.1542
lhand -39.0966 -12.5018
lfingers 7.12502
lthumb -12.0968 17.1285
rfemur -50.9229 24.0445 -6.68576
rtibia 73.8802
rfoot 2.89755 10.9801
rtoes -43.1513
lfemur -32.3735 -6.54526 -36.3325
ltibia 38.4963
lfoot -17.0021 10.3359
ltoes 6.00797
72
root 2.92779 16.7224 -0.0366559 15.2897 4.84291 11.1018
lowerback -7.50073 1.8626 0.715103
upperback -1.71116 2.67761 -7.39251
thorax 2.82631 1.38618 -7.91327
lowerneck -2.74028 14.8465 5.66995
upperneck 47.4999 24.8743 -2.14109
head 20.3847 10.8379 2.28729
rclavicle -3.03644e-014 4.37326e-014
rhumerus -35.5848 5.12005 -93.9646
rradius 42.399
rwrist -35.7037
rhand -8.69305 -51.8165
rfingers 7.12502
rthumb 17.2419 -81.0716
lclavicle -3.03644e-014 4.37326e-014
lhumerus -27.2851 -20.7043 82.3399
lradius 42.0628
lwrist 73.0526
lhand -39.1064 -12.5526
lfingers 7.12502
lthumb -12.1062 17.0772
rfemur -50.9463 24.0408 -6.64928
rtibia 73.9325
rfoot 2.75642 11.0641
rtoes -43.5577
lfemur -32.3847 -6.51518 -36.3276
ltibia 38.6182
lfoot -17.0353 10.4623
ltoes 5.05553
